<?xml version="1.0" encoding="UTF-8" standalone="no"?>
<svg
   version="1.0"
   width="900.000000pt"
   height="348.000000pt"
   viewBox="0 0 900.000000 348.000000"
   preserveAspectRatio="xMidYMid meet"
   id="svg63"
   sodipodi:docname="Pxuz6h01 colors.svg"
   inkscape:version="1.1.2 (b8e25be833, 2022-02-05)"
   xmlns:inkscape="http://www.inkscape.org/namespaces/inkscape"
   xmlns:sodipodi="http://sodipodi.sourceforge.net/DTD/sodipodi-0.dtd"
   xmlns="http://www.w3.org/2000/svg"
   xmlns:svg="http://www.w3.org/2000/svg">
  <defs
     id="defs67" />
  <sodipodi:namedview
     id="namedview65"
     pagecolor="#ffffff"
     bordercolor="#666666"
     borderopacity="1.0"
     inkscape:pageshadow="2"
     inkscape:pageopacity="0.0"
     inkscape:pagecheckerboard="0"
     inkscape:document-units="pt"
     showgrid="false"
     inkscape:zoom="2.8284271"
     inkscape:cx="99.348502"
     inkscape:cy="207.71262"
     inkscape:window-width="1920"
     inkscape:window-height="974"
     inkscape:window-x="-11"
     inkscape:window-y="-11"
     inkscape:window-maximized="1"
     inkscape:current-layer="layer1" />
  <metadata
     id="metadata39">
Created by potrace 1.10, written by Peter Selinger 2001-2011
</metadata>
  <g
     inkscape:groupmode="layer"
     id="layer1"
     inkscape:label="Color E">
    <path
       style="fill:none;stroke:#000000;stroke-width:0.75px;stroke-linecap:butt;stroke-linejoin:miter;stroke-opacity:1"
       d="m 20.109435,102.15656 18.64786,-18.237342 14.760469,-6.482558 22.350211,-7.644333 33.410385,-2.626226 24.28168,8.761259 14.5693,11.87694 4.45169,13.24144 0.66829,15.27306 -9.61449,20.16796 -18.45058,12.48081 -20.74142,7.32987 -47.240724,1.51655 -19.189221,-4.57719 -3.564718,0.8886 1.241764,10.12728 8.484364,32.70693 19.758107,24.46086 25.62437,4.07482 32.724568,-6.07396 24.71904,-13.21457 16.09876,-12.85586 -16.13528,32.7474 -27.66746,19.86342 -48.078191,4.87224 -23.616443,-7.2404 L 23.892404,222.46331 8.342835,187.5463 3.5241393,150.60063 7.85196,119.72259 Z"
       id="path20785" />
    <path
       style="fill:none;stroke:#000000;stroke-width:0.75px;stroke-linecap:butt;stroke-linejoin:miter;stroke-opacity:1"
       d="m 33.817355,119.49536 9.909639,-13.75995 17.210351,-8.204698 24.2765,-5.608575 24.598225,-1.393545 17.98168,8.223623 3.23898,18.125515 -14.30628,10.95308 -27.128203,6.96598 -35.598239,-1.67312 -19.735372,-7.84427 z"
       id="path20985" />
    <path
       style="fill:none;stroke:#000000;stroke-width:0.75px;stroke-linecap:butt;stroke-linejoin:miter;stroke-opacity:1"
       d="M 142.67839,107.31392 Z"
       id="path20987" />
    <path
       style="fill:#135609;stroke:#000000;stroke-width:0.75px;stroke-linecap:butt;stroke-linejoin:miter;stroke-opacity:1;fill-opacity:1"
       d="M 152.58103,101.04574 148.12934,87.8043 133.56004,75.92736 109.27836,67.166101 75.867975,69.792327 53.517764,77.43666 38.757295,83.919218 20.109435,102.15656 7.85196,119.72259 3.5241393,150.60063 8.342835,187.5463 l 15.549569,34.91701 23.709362,21.13025 23.616443,7.2404 48.078191,-4.87224 27.66746,-19.86342 16.13528,-32.7474 -16.09876,12.85586 -24.71904,13.21457 -32.724568,6.07396 -25.62437,-4.07482 -19.758107,-24.46086 -8.484364,-32.70693 -1.241764,-10.12728 3.564718,-0.8886 19.189221,4.57719 47.240724,-1.51655 20.74142,-7.32987 18.45058,-12.48081 9.61449,-20.16796 z"
       id="path21057" />
    <path
       style="fill:#ffffff;stroke:#000000;stroke-width:0.75px;stroke-linecap:butt;stroke-linejoin:miter;stroke-opacity:1;opacity:1;fill-opacity:1"
       d="m 34.264636,125.2794 19.735372,7.84427 35.598239,1.67312 27.128203,-6.96598 14.30628,-10.95308 -3.23898,-18.125515 -17.98168,-8.223622 -24.598225,1.393544 -24.2765,5.608576 -17.210351,8.204697 -9.909639,13.75995 z"
       id="path22336" />
  </g>
  <g
     transform="translate(0.000000,348.000000) scale(0.100000,-0.100000)"
     fill="#000000"
     stroke="none"
     id="g61">
    <path
       id="path41"
       style="stroke-width:0.133333"
       d="m 585.59961,0 c -6.01832,0.14993276 -7.40085,2.2888789 -14.49369,28.366077 -5.24514,17.99061 -8.51078,28.399989 -11.28962,53.194074 C 558.01783,99.038619 558,92.266667 558,164 c 0,71.73333 1.40828,71.97338 2.40039,82.5332 5.76728,28.06282 11.36885,54.27153 16.48776,68.79461 5.87573,18.47265 4.32149,19.45627 11.24466,18.00617 9.51555,-3.58782 -3.26235,-31.86947 -4.26562,-35.20117 -7.90334,-26.62558 -13.11799,-55.55205 -14.53321,-77.46679 -1.56417,-14.69811 -3.60143,-105.19857 -0.13476,-113.86524 4.17784,-34.796272 6.88233,-57.563233 15.54005,-83.434355 C 591.33005,1.1519516 592.38908,1.071134 585.59961,0 Z"
       transform="matrix(7.5,0,0,-7.5,0,3480)"
       sodipodi:nodetypes="cccscccccccc" />
    <path
       d="M4641 2348 c0 -1221 5 -1363 44 -1363 20 0 20 8 23 575 2 600 -13 1818 -24 1883 -5 27 -11 37 -25 37 -19 0 -19 -28 -18 -1132z"
       id="path43" />
    <path
       d="m 8514.9061,3374.4637 c 57.8414,-175.9017 77.4391,-208.3742 101.1999,-337.055 38.6442,-168.9417 48.3075,-301.1742 64.894,-457.4087 6,-63 17,-151 25,-196 13.5778,-102.4695 15.3615,-120.755 4,-252 -5,-37 -12,-128 -15,-202 -13.1743,-241.9743 -20.6896,-279.3166 -65,-533 -24.2871,-107.8205 -41.9832,-187.273 -62.6569,-256.4549 C 8523.9268,986.11175 8523.5491,975.75582 8560,957 c 46,-12 45.5471,8.83794 126,243 58.6667,291.9643 69.8851,365.0147 90.4274,528.5768 1,50 18.2893,143.2086 33.3346,562.9386 -18.8591,247.944 -29.9237,265.9619 -74.762,615.4846 -24.0157,120.1176 -49.7638,214.5197 -70.2344,296.4687 C 8583.0534,3462.329 8591.0903,3476.7884 8534,3480 c -51,0 -46.69,-11.9244 -19.0939,-105.5363 z"
       id="path45"
       sodipodi:nodetypes="cccccccccccccccc" />
    <path
       d="m 7800,2820 c -176,-23 -302,-108 -419,-281 -80,-117 -148,-284 -167,-409 -21,-143 -4,-445 31,-525 59.9007,-221.8293 198.671,-432.9453 367,-546 93,-60 175,-82 293,-81 153,2 262,50 374,165 58,59 171,225 171,252 0,19 -38,48 -55,41 -63.3972,-72.2869 -108.9382,-166.8825 -181,-236 -168.0035,-139.4694 -368.0856,-160.6982 -518,-81 -150.9851,85.2087 -320.6318,275.5292 -359,448 -9.634,57.9106 -69.5219,289.3498 -46,308 5,4 42,-24 82,-62 248.9548,-204.1134 621.5978,-230.7007 835,-29 76.4129,69.257 111.5725,147.3501 149,225 61.2756,154.7359 26.9198,368.9263 -32,506 -117.7532,210.7779 -344.9025,329.6183 -525,305 z m 242,-138 c 87,-40 108,-59 185,-171 113,-162 112,-425 -1,-580 -70,-96 -133,-137 -257,-170 -120,-31 -202,-35 -293,-12 -143,36 -240,101 -314,210 -58,84 -68,126 -54,214 11.8624,97.4575 51.4872,173.3776 88.6203,250.772 63.4824,121.0868 163.2942,214.4088 287.8937,270.6667 130.9536,42.1709 269.682,28.0295 357.486,-12.4387 z"
       id="path47"
       sodipodi:nodetypes="cccccccscccccccccccccccccccc" />
    <path
       d="m 628,2539 c -187,-78 -256,-128 -312,-224 -40,-67 -32,-87 54,-130 144.47664,-78.1791 313.20676,-69.9568 405,-70 212,1 235,2 290,23 90.5343,32.975 209.8865,69.6698 256,154 24,47 24,108 2,172 -116.4289,204.5677 -516.7937,144.5904 -695,75 z m 546,-14 c 93,-34 106,-51 106,-138 0,-66 -2,-71 -33,-101 -94.7473,-88.1682 -281.02209,-119.8627 -402,-131 -88.20147,10.3745 -547.0159,8.776 -476,141 91.09655,165.4945 433.36726,250.9803 596,253 125,1 147,-2 209,-24 z"
       id="path51"
       sodipodi:nodetypes="cccccccccsccccc" />
    <path
       d="m 4952,2480 c -160.5379,-315.4182 -170.0329,-773.0354 -60,-1050 24,-61 89,-184 125,-232 79,-108 211,-205 313,-227 106,-24 256,-8 339,37 143,77 258,225 345,442 23,58 33,94 67,255 30.2682,261.8751 -3.9818,492.6417 -110,715 -38,78 -75,136 -116,184 -138.8318,167.0246 -252.6881,206.2397 -412,205 -216.5032,9.9583 -397.2958,-156.8197 -491,-329 z m 806,101 c 90,-92 140,-177 177,-296 15,-49 33,-110 41,-134 45.2613,-216.3819 24.5672,-424.6179 -33,-646 -37,-136 -138,-289 -248,-371 -80,-61 -132,-79 -236,-82 -230.9957,2.9235 -392.8552,180.4754 -473,368 -61.968,143.8483 -97.531,317.9127 -98,470 0,127 15.7604,189.99 72,404 91.2412,238.4113 255.0205,422.3279 495,441 126.476,-16.8114 229.4938,-79.7245 303,-154 z"
       id="path53"
       sodipodi:nodetypes="cccccccccccccccccccccc" />
    <path
       d="m 6442,2788 c -15,-15 -17,-1804 -2,-1813 5,-3 19,-1 30,5 19,10 20,23 22,739 l 3,728 35,39 c 20,21 42,48 50,59 35,47 193,134 281,154 58,14 194,14 243,0 22,-6 73,-27 114,-46 77,-36 117,-38 129,-7 10,28 -42,65 -162,114 -136,56 -312,50 -451,-16 -28,-13 -54,-24 -58,-24 -39.5719,-9.8804 -157.7115,-155.4443 -180,-104 -3,9 -6,49 -6,89 0,62 -3,76 -18,84 -13,7 -23,6 -30,-1 z"
       id="path55"
       sodipodi:nodetypes="sscccccccccccccscs" />
    <path
       d="m 3049,2775 c -39.8758,-12.9547 -92.3073,-53.4339 -120,-29 -16,14 -24,16 -37,7 -16,-9 -17,-73 -20,-824 -3,-736 9,-1538 25,-1742 6,-77 6,-78 32,-75 l 26,3 3,450 c 1,247 6,453 11,458 5,5 17,4 27,-1 131.3151,-54.63063 311.9449,-63.06543 426,-14 35,16 88,47 118,70 57,43 151,151 185,212 46.6438,82.9447 59.8118,136.8372 97,215 42.341,146.8456 37.4465,278.1184 38,381 3.5479,156.7441 -3.266,212.0088 -20.399,266.4903 C 3779.1174,2363.1788 3681.6735,2579.4697 3525,2701 c -102,78 -143.7128,100.7677 -303.7128,99.7677 C 3133.2872,2800.7677 3072,2784 3049,2775 Z m 291,-74 c 30,-11 72,-26 92,-35 119.8578,-79.7598 185.3495,-163.8219 245,-272 39,-69 79,-181 103,-292 16,-69 16,-365 0,-434 -23,-104 -69,-238 -99,-289 -48.7303,-88.9465 -109.3946,-179.3767 -191,-239 -100.0629,-70.4166 -183.6612,-89.9039 -265,-90 -80.3877,1.5394 -195.3738,17.6353 -248,78 -13,15 -17,116 -28,749 l -12,732 24,21 c 91,77 265,110 379,71 z"
       id="path57"
       sodipodi:nodetypes="cccccsccsccccccccccccccccccccccc" />
    <path
       d="m 1756,2632 c 81.5275,-175.5732 161.4819,-351.8832 244,-527 75,-158 90,-198 90,-235 -167.8044,-390.9532 -193.9468,-458.6374 -341,-760 -26,-46 -57.9868,-113.5871 -57.9868,-113.5871 81.9775,-66.16381 144.5349,113.1351 165.7822,162.2341 68.534,139.8801 101.2111,221.5941 163.2046,340.353 42.5908,66.1899 58.0659,150.1242 109,255 15,10 41,-5 41,-23 43.6429,-82.028 78.0373,-181.0084 114,-255 58.3001,-134.5467 117.652,-250.7138 167,-371 44,-106 58,-126 89,-122 46,4 40,30 -55,232 -23,50 -64,135 -90,190 -65.8973,126.0031 -115.9114,282.6369 -180,396 -38,67 -37,70 60,274 91.1378,197.9372 174.521,365.7978 254,546 25,53 29,137 7,145 -29,11 -49,-15 -93,-117 -61.8507,-150.4298 -124.6353,-273.5401 -183,-419 -26.1887,-40.9833 -75.8633,-221.0433 -118,-235 -12,0 -72,112 -101,189 -87.6624,171.2466 -281.2552,580.7355 -281.2552,580.7355 C 1700.1641,2743.7996 1751.7506,2641.1081 1756,2632 Z"
       id="path59"
       sodipodi:nodetypes="cccccccccccccccccccccccc" />
    <path
       d="M 768.07313,2819.9656 C 667.65049,2800.2185 553.5428,2763.7956 469.94675,2726.1247 306.94072,2647.9465 152,2481 108,2396 84,2348 52,2261 38,2200 3.8816128,2045.0723 5.9663479,1967.6628 27.215342,1725.3893 71.20423,1469.5899 249.30936,1151.5541 420,1045 559.3324,942.87596 726.51373,950.85386 852,950 c 254.3334,-6.14488 549.2439,90.3262 678,322 35.8179,43.6101 137.7121,244.9378 127,293 -11,27 -33,16 -88,-40 -177.1292,-142.4673 -329.9574,-206.5926 -534,-262 -88,-22 -298,-12 -357,18 -183.835,137.9319 -298.32352,402.1523 -300,641 238.27098,-59.0446 477.47221,-61.74 715.2687,-23.4731 162.1908,56.7962 358.8776,131.2064 446.7313,345.4731 0,8 5,18 10,21 6,3 10,49 10,101 0,133 -33,233 -95,293 -75.6272,77.238 -134.8989,107.7674 -219.746,137.9139 -57.0387,18.9613 -81.8777,34.7613 -249.87766,37.7613 -109,2 -184.95064,-7.6 -227.30321,-14.7096 z M 1105,2765 c 137.7715,-21.5219 379.6273,-107.4519 385,-266 13.5576,-91.3476 33.3133,-133.8285 11,-200 -86.1568,-223.4371 -313.1603,-304.0425 -504,-359 -255.70987,-35.7728 -440.92775,6.8392 -669,54 -40.52758,-168.0715 51.44221,-447.3576 115,-559 25,-43 149,-168 194,-195 46,-27 122,-43 227,-47 114,-5 207,11 331,58 132,50 156,61 249,116 96,57 109,62 98,36 -113.5593,-241.0652 -320.5248,-362.2355 -565.16488,-391.6495 -133,-14.00001 -163.53191,-16.68387 -258.53191,-1.6839 C 550.30321,1036.6666 473,1060 367,1160 c -63,58 -93,102 -162,236 -70.53099,124.2741 -90.83401,231.4587 -121,359 -22,98 -16,429 9,465 39.44396,105.9631 98.48945,212.0583 164,278 70,68 192,162 212,162 96.02389,40.8351 204.86571,83.1791 306,95 108.8269,18.2546 222.63291,34.9224 330,10 z"
       id="path49"
       sodipodi:nodetypes="ccccccccccccccccsccccccccccccccccccccccccc" />
  </g>
</svg>
